<svg width="750" height="750" viewBox="0 0 750 750" fill="none" xmlns="http://www.w3.org/2000/svg">
<g clip-path="url(#clip0_4_2)">
<path d="M400 5.34058e-05H350C156.7 5.34058e-05 -274.5 -210.8 -274.5 -17.4999L0 400C0 593.3 -305.8 750 -112.5 750H939C1132.3 750 750 593.3 750 400L979.5 77C979.5 -116.3 593.3 5.34058e-05 400 5.34058e-05Z" fill="#ED1C24"/>
<path d="M442.903 305.6C434.37 298.667 425.836 293.6 417.303 290.4C408.77 286.933 400.503 285.2 392.503 285.2C382.37 285.2 374.103 287.6 367.703 292.4C361.303 297.2 358.103 303.467 358.103 311.2C358.103 316.533 359.703 320.933 362.903 324.4C366.103 327.867 370.236 330.933 375.303 333.6C380.636 336 386.503 338.133 392.903 340C399.57 341.867 406.103 343.867 412.503 346C438.103 354.533 456.77 366 468.503 380.4C480.503 394.533 486.503 413.067 486.503 436C486.503 451.467 483.836 465.467 478.503 478C473.436 490.533 465.836 501.333 455.703 510.4C445.836 519.2 433.57 526 418.903 530.8C404.503 535.867 388.103 538.4 369.703 538.4C331.57 538.4 296.236 527.067 263.703 504.4L297.303 441.2C309.036 451.6 320.636 459.333 332.103 464.4C343.57 469.467 354.903 472 366.103 472C378.903 472 388.37 469.067 394.503 463.2C400.903 457.333 404.103 450.667 404.103 443.2C404.103 438.667 403.303 434.8 401.703 431.6C400.103 428.133 397.436 425.067 393.703 422.4C389.97 419.467 385.036 416.8 378.903 414.4C373.036 412 365.836 409.333 357.303 406.4C347.17 403.2 337.17 399.733 327.303 396C317.703 392 309.036 386.8 301.303 380.4C293.836 374 287.703 366 282.903 356.4C278.37 346.533 276.103 334.133 276.103 319.2C276.103 304.267 278.503 290.8 283.303 278.8C288.37 266.533 295.303 256.133 304.103 247.6C313.17 238.8 324.103 232 336.903 227.2C349.97 222.4 364.503 220 380.503 220C395.436 220 411.036 222.133 427.303 226.4C443.57 230.4 459.17 236.4 474.103 244.4L442.903 305.6Z" fill="white"/>
</g>
<defs>
<clipPath id="clip0_4_2">
<rect width="750" height="750" fill="white"/>
</clipPath>
</defs>
</svg>
